<svg xmlns="http://www.w3.org/2000/svg" xmlns:xlink="http://www.w3.org/1999/xlink" width="250" zoomAndPan="magnify" viewBox="0 0 187.5 74.999997" height="100" preserveAspectRatio="xMidYMid meet" version="1.0"><defs><g/></defs><g fill="#000000" fill-opacity="1"><g transform="translate(8.555842, 55.861758)"><g><path d="M 13.609375 0.609375 C 19.921875 0.609375 23.546875 -2.953125 24.71875 -7.84375 L 21.5625 -7.84375 C 20.953125 -5.453125 18.8125 -1.890625 13.5625 -1.890625 C 8.109375 -1.890625 4.390625 -5.859375 4.390625 -12.6875 L 25.078125 -12.6875 C 25.078125 -20.796875 21.359375 -26.65625 13.453125 -26.65625 C 6.0625 -26.65625 1.21875 -21.40625 1.21875 -13 C 1.21875 -4.84375 5.96875 0.609375 13.609375 0.609375 Z M 4.390625 -14.890625 C 4.484375 -19.984375 7.796875 -24.265625 13.453125 -24.265625 C 19.171875 -24.265625 21.921875 -19.71875 21.921875 -14.890625 Z M 4.390625 -14.890625 "/></g></g></g><g fill="#000000" fill-opacity="1"><g transform="translate(34.748183, 55.861758)"><g><path d="M 12.4375 0.609375 C 17.234375 0.609375 20.34375 -2.390625 21.71875 -5.5625 L 21.8125 -5.5625 L 21.8125 0 L 25.03125 0 L 25.03125 -36.4375 L 21.8125 -36.4375 L 21.8125 -20.390625 L 21.71875 -20.390625 C 20.34375 -23.75 17.234375 -26.65625 12.4375 -26.65625 C 6.0625 -26.65625 1.21875 -21.5625 1.21875 -13 C 1.21875 -4.4375 6.0625 0.609375 12.4375 0.609375 Z M 13.25 -1.890625 C 8.046875 -1.890625 4.390625 -6.015625 4.390625 -13 C 4.390625 -20.03125 8.046875 -24.109375 13.25 -24.109375 C 17.890625 -24.109375 21.765625 -20.03125 21.765625 -13 C 21.765625 -6.015625 17.890625 -1.890625 13.25 -1.890625 Z M 13.25 -1.890625 "/></g></g></g><g fill="#000000" fill-opacity="1"><g transform="translate(62.265432, 55.861758)"><g><path d="M 13.203125 8.8125 C 20.234375 8.8125 24.671875 5.65625 24.671875 -1.734375 L 24.671875 -26.203125 L 21.515625 -26.203125 L 21.515625 -20.890625 L 21.40625 -20.890625 C 19.984375 -24.265625 16.609375 -26.65625 12.234375 -26.65625 C 6.265625 -26.65625 1.21875 -22.328125 1.21875 -14.015625 C 1.21875 -5.703125 6.265625 -1.421875 12.234375 -1.421875 C 16.609375 -1.421875 20.03125 -3.875 21.40625 -7.03125 L 21.515625 -7.03125 L 21.515625 -1.890625 C 21.515625 3.765625 18.34375 6.3125 13.15625 6.3125 C 8 6.3125 5.609375 3.828125 5.046875 1.125 L 1.890625 1.125 C 2.390625 5.140625 6.171875 8.8125 13.203125 8.8125 Z M 13.046875 -3.921875 C 8.203125 -3.921875 4.390625 -7.234375 4.390625 -14.015625 C 4.390625 -20.84375 8.203125 -24.109375 13.046875 -24.109375 C 17.28125 -24.109375 21.453125 -20.84375 21.453125 -14.015625 C 21.453125 -7.234375 17.28125 -3.921875 13.046875 -3.921875 Z M 13.046875 -3.921875 "/></g></g></g><g fill="#ffbd59" fill-opacity="1"><g transform="translate(89.480664, 55.861758)"><g><path d="M 13.609375 0.609375 C 19.921875 0.609375 23.546875 -2.953125 24.71875 -7.84375 L 21.5625 -7.84375 C 20.953125 -5.453125 18.8125 -1.890625 13.5625 -1.890625 C 8.109375 -1.890625 4.390625 -5.859375 4.390625 -12.6875 L 25.078125 -12.6875 C 25.078125 -20.796875 21.359375 -26.65625 13.453125 -26.65625 C 6.0625 -26.65625 1.21875 -21.40625 1.21875 -13 C 1.21875 -4.84375 5.96875 0.609375 13.609375 0.609375 Z M 4.390625 -14.890625 C 4.484375 -19.984375 7.796875 -24.265625 13.453125 -24.265625 C 19.171875 -24.265625 21.921875 -19.71875 21.921875 -14.890625 Z M 4.390625 -14.890625 "/></g></g></g><g fill="#000000" fill-opacity="1"><g transform="translate(115.684224, 55.861758)"><g><path d="M 15.09375 0.609375 C 21.453125 0.609375 26.34375 -4.4375 26.34375 -13 C 26.34375 -21.5625 21.453125 -26.65625 15.09375 -26.65625 C 10.296875 -26.65625 7.234375 -23.75 5.8125 -20.390625 L 5.703125 -20.390625 L 5.703125 -36.4375 L 2.546875 -36.4375 L 2.546875 0 L 5.703125 0 L 5.703125 -5.5625 L 5.8125 -5.5625 C 7.1875 -2.390625 10.296875 0.609375 15.09375 0.609375 Z M 14.265625 -1.890625 C 9.6875 -1.890625 5.765625 -6.015625 5.765625 -13 C 5.765625 -20.03125 9.6875 -24.109375 14.265625 -24.109375 C 19.515625 -24.109375 23.140625 -20.03125 23.140625 -13 C 23.140625 -6.015625 19.515625 -1.890625 14.265625 -1.890625 Z M 14.265625 -1.890625 "/></g></g></g><g fill="#000000" fill-opacity="1"><g transform="translate(143.201473, 55.861758)"><g><path d="M 2.65625 0 L 5.859375 0 L 5.859375 -36.4375 L 2.65625 -36.4375 Z M 2.65625 0 "/></g></g></g><g fill="#000000" fill-opacity="1"><g transform="translate(151.711437, 55.861758)"><g><path d="M 13.609375 0.609375 C 19.921875 0.609375 23.546875 -2.953125 24.71875 -7.84375 L 21.5625 -7.84375 C 20.953125 -5.453125 18.8125 -1.890625 13.5625 -1.890625 C 8.109375 -1.890625 4.390625 -5.859375 4.390625 -12.6875 L 25.078125 -12.6875 C 25.078125 -20.796875 21.359375 -26.65625 13.453125 -26.65625 C 6.0625 -26.65625 1.21875 -21.40625 1.21875 -13 C 1.21875 -4.84375 5.96875 0.609375 13.609375 0.609375 Z M 4.390625 -14.890625 C 4.484375 -19.984375 7.796875 -24.265625 13.453125 -24.265625 C 19.171875 -24.265625 21.921875 -19.71875 21.921875 -14.890625 Z M 4.390625 -14.890625 "/></g></g></g><g fill="#ffffff" fill-opacity="1"><g transform="translate(177.908914, 55.861758)"><g/></g></g></svg>